<mxfile host="app.diagrams.net" modified="2021-02-16T17:06:18.825Z" agent="5.0 (Windows NT 10.0; Win64; x64) AppleWebKit/537.36 (KHTML, like Gecko) Chrome/88.0.4324.150 Safari/537.36" etag="41iO7xcG3ng9jNolJq7v" version="14.3.1" type="github">
  <diagram name="Page-1" id="5f0bae14-7c28-e335-631c-24af17079c00">
    <mxGraphModel dx="1422" dy="762" grid="1" gridSize="10" guides="1" tooltips="1" connect="1" arrows="1" fold="1" page="1" pageScale="1" pageWidth="1100" pageHeight="850" background="#ffffff" math="0" shadow="0">
      <root>
        <mxCell id="0" />
        <mxCell id="1" parent="0" />
        <mxCell id="oetDJXgIogikUlrGvUV0-5" style="edgeStyle=orthogonalEdgeStyle;rounded=0;orthogonalLoop=1;jettySize=auto;html=1;" edge="1" parent="1" source="39150e848f15840c-1" target="oetDJXgIogikUlrGvUV0-2">
          <mxGeometry relative="1" as="geometry" />
        </mxCell>
        <mxCell id="oetDJXgIogikUlrGvUV0-6" style="edgeStyle=orthogonalEdgeStyle;rounded=0;orthogonalLoop=1;jettySize=auto;html=1;entryX=0.5;entryY=0;entryDx=0;entryDy=0;" edge="1" parent="1" source="39150e848f15840c-1" target="oetDJXgIogikUlrGvUV0-3">
          <mxGeometry relative="1" as="geometry" />
        </mxCell>
        <mxCell id="oetDJXgIogikUlrGvUV0-7" style="edgeStyle=orthogonalEdgeStyle;rounded=0;orthogonalLoop=1;jettySize=auto;html=1;" edge="1" parent="1" source="39150e848f15840c-1">
          <mxGeometry relative="1" as="geometry">
            <mxPoint x="810" y="420" as="targetPoint" />
          </mxGeometry>
        </mxCell>
        <mxCell id="39150e848f15840c-1" value="GOLDEN" style="verticalAlign=top;align=left;spacingTop=8;spacingLeft=2;spacingRight=12;shape=cube;size=10;direction=south;fontStyle=4;html=1;rounded=0;shadow=0;comic=0;labelBackgroundColor=none;strokeWidth=1;fontFamily=Verdana;fontSize=12" parent="1" vertex="1">
          <mxGeometry x="350" y="50" width="330" height="220" as="geometry" />
        </mxCell>
        <mxCell id="oetDJXgIogikUlrGvUV0-1" value="&lt;br&gt;&lt;br&gt;&lt;br&gt;&lt;br&gt;&lt;br&gt;&lt;br&gt;&lt;br&gt;&lt;br&gt;VW_TBL_CLIENTE360_CONTACTABLE" style="html=1;aspect=fixed;strokeColor=none;shadow=0;align=center;verticalAlign=top;fillColor=#3B8DF1;shape=mxgraph.gcp2.view_list" vertex="1" parent="1">
          <mxGeometry x="460" y="100.74000000000001" width="96" height="118.52" as="geometry" />
        </mxCell>
        <mxCell id="oetDJXgIogikUlrGvUV0-2" value="&lt;span style=&quot;color: rgba(0 , 0 , 0 , 0.9) ; font-family: &amp;#34;segoe ui vss (regular)&amp;#34; , &amp;#34;segoe ui&amp;#34; , , &amp;#34;blinkmacsystemfont&amp;#34; , &amp;#34;roboto&amp;#34; , &amp;#34;helvetica neue&amp;#34; , &amp;#34;helvetica&amp;#34; , &amp;#34;ubuntu&amp;#34; , &amp;#34;arial&amp;#34; , sans-serif , &amp;#34;apple color emoji&amp;#34; , &amp;#34;segoe ui emoji&amp;#34; , &amp;#34;segoe ui symbol&amp;#34; ; font-size: 14px ; text-align: left&quot;&gt;HCWEB.BIPERFILADOR&lt;/span&gt;" style="image;html=1;image=img/lib/clip_art/computers/Database_128x128.png" vertex="1" parent="1">
          <mxGeometry x="170" y="425" width="80" height="80" as="geometry" />
        </mxCell>
        <mxCell id="oetDJXgIogikUlrGvUV0-3" value="&lt;span style=&quot;color: rgba(0 , 0 , 0 , 0.9) ; font-family: &amp;#34;segoe ui vss (regular)&amp;#34; , &amp;#34;segoe ui&amp;#34; , , &amp;#34;blinkmacsystemfont&amp;#34; , &amp;#34;roboto&amp;#34; , &amp;#34;helvetica neue&amp;#34; , &amp;#34;helvetica&amp;#34; , &amp;#34;ubuntu&amp;#34; , &amp;#34;arial&amp;#34; , sans-serif , &amp;#34;apple color emoji&amp;#34; , &amp;#34;segoe ui emoji&amp;#34; , &amp;#34;segoe ui symbol&amp;#34; ; font-size: 14px ; text-align: left&quot;&gt;HCBI.BI&lt;/span&gt;" style="image;html=1;image=img/lib/clip_art/computers/Database_128x128.png" vertex="1" parent="1">
          <mxGeometry x="475" y="425" width="80" height="80" as="geometry" />
        </mxCell>
        <mxCell id="oetDJXgIogikUlrGvUV0-4" value="&lt;span style=&quot;color: rgba(0 , 0 , 0 , 0.9) ; font-family: &amp;#34;segoe ui vss (regular)&amp;#34; , &amp;#34;segoe ui&amp;#34; , , &amp;#34;blinkmacsystemfont&amp;#34; , &amp;#34;roboto&amp;#34; , &amp;#34;helvetica neue&amp;#34; , &amp;#34;helvetica&amp;#34; , &amp;#34;ubuntu&amp;#34; , &amp;#34;arial&amp;#34; , sans-serif , &amp;#34;apple color emoji&amp;#34; , &amp;#34;segoe ui emoji&amp;#34; , &amp;#34;segoe ui symbol&amp;#34; ; font-size: 14px ; text-align: left&quot;&gt;HCOP.CECOP&lt;/span&gt;" style="image;html=1;image=img/lib/clip_art/computers/Database_128x128.png" vertex="1" parent="1">
          <mxGeometry x="770" y="425" width="80" height="80" as="geometry" />
        </mxCell>
      </root>
    </mxGraphModel>
  </diagram>
</mxfile>
